<svg xmlns="http://www.w3.org/2000/svg" width="3.6in" height="3.6in" viewBox="0 0 256 256"><g fill="none" stroke="#fff" stroke-miterlimit="10"><path stroke-width="8.98" d="M86.6 136l38.9 107.3 39-107.3"/><path stroke-width="9.33" d="M181.1 112.1c28.6-40.6 2.5-81.5-21.3-94.8-19.1-10.7-50.4-11.6-69.1-.3-50.2 30.3-29.8 76.7-22.6 89.7l-2.2.4c-14.6 3.5-24.6 13.9-22.4 23.2S59.4 144.4 74 141c7.3-1.8 13.4-5.2 17.5-9.4 3.3 8.6 10.6 14 17.5 12.3a11.9 11.9 0 0 0 7.5-5.8 20.6 20.6 0 0 0 18.3 11.5c9.4 0 17.3-6.6 19.9-15.7a33.4 33.4 0 0 0 11.7 6.2c12.4 3.7 24.5-.1 27-8.4s-3.2-15-12.3-19.6z"/></g></svg>