<svg xmlns="http://www.w3.org/2000/svg" width=".4in" height=".4in" viewBox="0 0 32 32"><g fill="none" stroke="#fff" stroke-miterlimit="10"><path stroke-width="1.14" d="M10.2 16.7l5 13.7 4.9-13.7"/><path stroke-width="1.19" d="M22.2 13.7a8.1 8.1 0 0 0-2.7-12 9.5 9.5 0 0 0-8.7-.1C4.4 5.5 7 11.4 7.9 13h-.3c-1.8.4-3.1 1.7-2.8 2.9s2 1.8 3.8 1.4a6.2 6.2 0 0 0 2.3-1.2 2 2 0 0 0 2.2 1.5 1.3 1.3 0 0 0 .9-.6 2.8 2.8 0 0 0 2.4 1.5 2.7 2.7 0 0 0 2.5-2 5.3 5.3 0 0 0 1.5.8c1.6.4 3.1-.1 3.4-1.1s-.4-1.9-1.6-2.5z"/></g></svg>