<svg xmlns="http://www.w3.org/2000/svg" width=".9in" height=".9in" viewBox="0 0 64 64"><g fill="none" stroke="#fff" stroke-miterlimit="10"><path stroke-width="2.28" d="M21.9 33.4l9.9 27.3 9.9-27.3"/><path stroke-width="2.37" d="M45.9 27.3c7.2-10.3.6-20.7-5.4-24s-12.8-3-17.6-.1c-12.7 7.7-7.5 19.5-5.7 22.8h-.6c-3.7.9-6.2 3.5-5.7 5.9s4.1 3.5 7.8 2.7a9.3 9.3 0 0 0 4.4-2.4c.9 2.2 2.7 3.5 4.5 3.1a3.3 3.3 0 0 0 1.9-1.3 5.2 5.2 0 0 0 4.6 2.9 5.4 5.4 0 0 0 5.1-4 8.9 8.9 0 0 0 2.9 1.5c3.2 1 6.3 0 6.9-2.1s-.8-3.8-3.1-5z"/></g></svg>